<svg version="1.2" xmlns="http://www.w3.org/2000/svg" viewBox="0 0 1440 490" width="1440" height="490">
	<title>footer-svg</title>
	<defs>
		<linearGradient id="g1" x2="1" gradientUnits="userSpaceOnUse" gradientTransform="matrix(0,-490,5760,0,0,490)">
			<stop offset="0" stop-color="#0b4551"/>
			<stop offset="1" stop-color="#e5fc31"/>
		</linearGradient>
		<linearGradient id="g2" x2="1" gradientUnits="userSpaceOnUse" gradientTransform="matrix(0,-474.735,5760,0,0,529)">
			<stop offset="0" stop-color="#0b4551"/>
			<stop offset="1" stop-color="#d6d3d1"/>
		</linearGradient>
	</defs>
	<style>
		.s0 { fill: url(#g1) } 
		.s1 { opacity: .9;fill: url(#g2) } 
	</style>
	<path class="s0" d="m0 0l40 8.2c40 7.8 120 24.8 200 49 80 24.8 160 56.8 240 122.5 80 65.3 160 163.3 240 171.5 80 7.8 160-73.2 240-147 80-73.2 160-139.2 240-114.4 80 24.2 160 139.2 240 171.5 80 32.7 160-16.3 240-16.3 80 0 160 49 240 24.5 80-24.5 160-122.5 240-130.7 80-7.8 160 73.2 240 73.5 80-0.3 160-81.3 240-106.1 80-24.2 160 7.8 240 8.1 80-0.3 160-32.3 240-57.1 80-24.2 160-41.2 240-49 80-8.2 160-8.2 240 8.1 80 16.7 160 48.7 240 106.2 80 57.5 160 138.5 240 196 80 57.5 160 89.5 240 40.8 80-49.3 160-179.3 240-179.6 80 0.3 160 130.3 240 138.8 80 8.5 160-106.5 240-130.7 80-24.8 160 41.2 240 73.5 80 32.7 160 32.7 240 57.2 80 24.5 160 73.5 200 98l40 24.5v49h-40c-40 0-120 0-200 0q-120 0-240 0-120 0-240 0-120 0-240 0-120 0-240 0-120 0-240 0-120 0-240 0-120 0-240 0-120 0-240 0-120 0-240 0-120 0-240 0-120 0-240 0-120 0-240 0-120 0-240 0-120 0-240 0-120 0-240 0-120 0-240 0-120 0-240 0-120 0-240 0-120 0-240 0-120 0-240 0-120 0-240 0-120 0-240 0c-80 0-160 0-200 0h-40z"/>
	<path class="s1" d="m0 137l40 40.8c40 41.2 120 122.2 200 171.5 80 48.7 160 65.7 240 8.2 80-57.5 160-187.5 240-253.2 80-65.3 160-65.3 240-8.1 80 56.8 160 171.8 240 236.8 80 65 160 82 240 24.5 80-57.5 160-187.5 240-236.8 80-48.7 160-16.7 240 8.1 80 24.2 160 41.2 240 81.7 80 40.5 160 106.5 240 114.3 80 8.2 160-40.8 240-24.5 80 16.7 160 97.7 240 122.5 80 24.2 160-7.8 240-49q120-61.2 240-147c80-56.8 160-122.8 240-122.5 80-0.3 160 65.7 240 73.5 80 8.2 160-40.8 240-40.8 80 0 160 49 240 81.7 80 32.3 160 49.3 240 73.5 80 24.8 160 56.8 240 65.3 80 8.5 160-8.5 240-65.3 80-57.2 160-155.2 240-187.9 80-32.3 160-0.3 240 24.5 80 24.2 160 41.2 200 49l40 8.2v343h-40c-40 0-120 0-200 0q-120 0-240 0-120 0-240 0-120 0-240 0-120 0-240 0-120 0-240 0-120 0-240 0-120 0-240 0-120 0-240 0-120 0-240 0-120 0-240 0-120 0-240 0-120 0-240 0-120 0-240 0-120 0-240 0-120 0-240 0-120 0-240 0-120 0-240 0-120 0-240 0-120 0-240 0-120 0-240 0-120 0-240 0-120 0-240 0c-80 0-160 0-200 0h-40z"/>
</svg>