<svg id="Layer_1" data-name="Layer 1" xmlns="http://www.w3.org/2000/svg" viewBox="0 0 500 500"><defs><style>.cls-1{fill:#0b4551;}</style></defs><path class="cls-1" d="M342.37,171.63a92.37,92.37,0,0,1-158.31,64.7l33.87-34.12a44.31,44.31,0,0,0,62.44,1.68L248.2,171.72l.09-.09Z"/><path class="cls-1" d="M314.21,105.23l-33.87,34.12a44.31,44.31,0,0,0-74.65,32.28H157.63a92.37,92.37,0,0,1,156.58-66.4Z"/><path class="cls-1" d="M63.49,363.43a19,19,0,0,0-15.44-7.54c-13.59,0-20.5,14-20.5,25.94,0,8.77,4.44,15.81,13.83,15.81,3,0,9.51-.61,11.61-3.08l1-5.93H41.5l3.34-20.88H83.62L77.7,405.8c-13,10.62-23.47,14.94-40.52,14.94C15.57,420.74,0,408.14,0,385.66c0-30.51,20.75-52.74,51.63-52.74,13.71,0,23.84,3.95,32.24,14.95Z"/><path class="cls-1" d="M166,419.38h-29.4l-1.23-12h-23.1l-5.06,12H79.05l42-85.22h29.89Zm-32.86-33.47-2.47-22.23-9.38,22.23Z"/><path class="cls-1" d="M232.34,387l13.34,32.36H214.55L206,391.1h-3.34l-4.44,28.28H171.2l13.46-85.22h35.7c15.07,0,30,4.81,30,22.6A34.33,34.33,0,0,1,232.34,387Zm-17.42-31.74h-6.67l-2.35,14.57h7c5.31,0,9.75-3.09,9.75-8.77C222.7,356.76,218.63,355.28,214.92,355.28Z"/><path class="cls-1" d="M355.85,334.16l-8.77,85.22H320.53l6.67-47.8-18,47.8H285.82L283,371.58l-8.52,47.8H247.9l18.28-85.22h34.59l3,45.82,17.54-45.82Z"/><path class="cls-1" d="M429.35,334.16l-3.59,22.11H394.39l-1.48,9h29.64l-3.46,22.11H389.45L388,397h32.61L417,419.38H357.46l13.46-85.22Z"/><path class="cls-1" d="M500,334.16,496.54,356H477.27l-10,63.36H440.21l10-63.36H431l3.46-21.86Z"/></svg>