<?xml version="1.0" ?><!-- Uploaded to: SVG Repo, www.svgrepo.com, Generator: SVG Repo Mixer Tools -->
<svg width="800px" height="800px" viewBox="0 0 64 64" data-name="Layer 1" id="Layer_1" xmlns="http://www.w3.org/2000/svg"><defs><style>.cls-1{fill:#ba9bc9;}.cls-2{fill:#838bc5;}.cls-3{fill:#8f6c56;}.cls-4{fill:#65c8d0;}.cls-5{fill:#f4ecce;}.cls-6{fill:#fcdd7c;}</style></defs><rect class="cls-1" height="6" width="2" x="38" y="12"/><rect class="cls-1" height="6" width="2" x="52" y="12"/><rect class="cls-2" height="40" width="60" x="2" y="18"/><rect class="cls-1" height="4" width="60" x="2" y="54"/><polyline class="cls-3" points="12 58 12 62 4 62 4 58"/><polyline class="cls-3" points="60 58 60 62 52 62 52 58"/><rect class="cls-4" height="32" width="24" x="34" y="22"/><rect class="cls-5" height="32" width="18" x="12" y="22"/><polyline class="cls-6" points="12 33 6 33 6 29 12 29"/><polyline class="cls-6" points="12 46 6 46 6 42 12 42"/><rect class="cls-3" height="2" width="60" x="2" y="53"/><polygon class="cls-6" points="41 33.01 44 34.01 43 40.01 49 33.01 46 32.01 51 26 45 26 41 33.01"/><rect class="cls-5" height="2" width="18" x="37" y="45"/><rect class="cls-5" height="2" width="18" x="37" y="49"/><rect class="cls-4" height="6" width="10" x="16" y="26"/><rect class="cls-4" height="2" width="12" x="15" y="45"/><rect class="cls-4" height="2" width="12" x="15" y="41"/><rect class="cls-4" height="2" width="4" x="15" y="49"/><rect class="cls-4" height="2" width="4" x="23" y="49"/><rect class="cls-6" height="6" width="18" x="37" y="7"/><path class="cls-1" d="M60,11H55V9h4V2h2v8A1,1,0,0,1,60,11Z"/></svg>